<?xml version="1.0" encoding="utf-8"?>
<!DOCTYPE svg PUBLIC "-//W3C//DTD SVG 20010904//EN" "http://www.w3.org/TR/2001/REC-SVG-20010904/DTD/svg10.dtd">
<svg version="1.0" xmlns="http://www.w3.org/2000/svg" width="602pt" height="339pt" viewBox="0 0 602 339" style="" preserveAspectRatio="xMidYMid meet">
<g fill="#ADFF2FFF" stroke="#ADFF2FFF">
<path d="M 207.732 19.750 C 207.266 20.655 202.989 36.185 198.575 53.000 C 197.636 56.575 196.191 61.892 195.362 64.816 C 194.534 67.740 193.178 72.690 192.349 75.816 C 191.521 78.942 189.945 84.875 188.848 89.000 C 187.751 93.125 185.824 100.550 184.566 105.500 C 183.308 110.450 181.508 117.200 180.566 120.500 C 177.950 129.670 175.435 138.822 173.560 146.000 C 171.952 152.160 169.509 161.360 166.526 172.500 C 165.789 175.250 164.425 180.156 163.494 183.401 C 162.564 186.647 160.760 193.397 159.487 198.401 C 156.416 210.470 153.351 222.074 151.426 228.921 C 150.564 231.990 149.257 236.750 148.522 239.500 C 147.788 242.250 146.425 247.156 145.494 250.401 C 144.564 253.647 142.785 260.397 141.540 265.401 C 140.296 270.406 138.570 276.975 137.705 280.000 C 136.839 283.025 135.385 288.425 134.472 292.000 C 133.560 295.575 131.956 301.232 130.907 304.570 C 129.858 307.909 129.000 310.947 129.000 311.320 C 129.000 311.694 165.450 312.000 210.000 312.000 L 291.000 312.000 291.000 165.500 L 291.000 19.000 249.559 19.000 C 226.766 19.000 207.944 19.338 207.732 19.750 M 255.000 165.500 L 255.000 276.000 216.000 276.000 L 177.000 276.000 177.000 273.678 C 177.000 272.401 177.619 269.364 178.376 266.928 C 179.953 261.853 183.096 250.475 185.538 241.000 C 186.459 237.425 188.002 231.575 188.966 228.000 C 189.930 224.425 191.505 218.575 192.466 215.000 C 194.274 208.270 196.180 201.222 199.903 187.500 C 201.096 183.100 202.774 176.800 203.632 173.500 C 204.489 170.200 206.005 164.575 207.000 161.000 C 207.995 157.425 209.554 151.575 210.465 148.000 C 211.375 144.425 212.935 138.575 213.931 135.000 C 214.927 131.425 216.459 125.800 217.335 122.500 C 221.743 105.893 223.346 99.952 225.028 94.000 C 226.038 90.425 227.617 84.575 228.538 81.000 C 229.459 77.425 231.024 71.575 232.015 68.000 C 233.006 64.425 234.119 60.038 234.488 58.250 L 235.159 55.000 245.079 55.000 L 255.000 55.000 255.000 165.500 "/></g>
<g fill="#ADFF2FFF" stroke="#ADFF2FFF">
<path d="M 311.000 165.519 L 311.000 312.038 333.688 311.769 L 356.375 311.500 358.690 303.000 C 359.963 298.325 361.270 293.150 361.594 291.500 C 361.917 289.850 362.988 285.800 363.972 282.500 C 364.957 279.200 366.474 273.800 367.345 270.500 C 369.513 262.278 372.845 249.808 374.959 242.000 C 375.927 238.425 377.484 232.575 378.419 229.000 C 379.354 225.425 380.935 219.575 381.931 216.000 C 382.927 212.425 384.523 206.575 385.477 203.000 C 386.432 199.425 388.078 193.463 389.135 189.750 L 391.058 183.000 410.010 183.000 L 428.962 183.000 429.579 180.250 C 429.919 178.738 431.026 174.575 432.039 171.000 C 433.052 167.425 434.646 161.575 435.581 158.000 C 436.516 154.425 438.070 148.575 439.034 145.000 C 439.998 141.425 441.553 135.575 442.489 132.000 C 443.425 128.425 445.000 122.575 445.990 119.000 C 448.913 108.444 451.756 97.913 453.414 91.500 C 454.267 88.200 455.881 82.125 457.000 78.000 C 458.119 73.875 459.745 67.800 460.612 64.500 C 461.480 61.200 463.016 55.575 464.025 52.000 C 465.034 48.425 466.125 44.375 466.450 43.000 C 467.711 37.658 471.876 22.411 472.527 20.750 C 473.178 19.092 468.947 19.000 392.107 19.000 L 311.000 19.000 311.000 165.519 M 425.000 56.662 C 425.000 58.227 424.361 60.717 420.361 74.750 C 419.459 77.913 417.704 84.594 416.460 89.599 C 415.215 94.603 413.508 101.128 412.664 104.099 C 411.821 107.069 410.369 112.425 409.437 116.000 C 407.701 122.657 405.398 131.068 402.522 141.250 L 400.898 147.000 373.949 147.000 L 347.000 147.000 347.000 101.000 L 347.000 55.000 386.000 55.000 C 421.691 55.000 425.000 55.141 425.000 56.662 "/></g>
<g fill="#ADFF2FFF" stroke="#ADFF2FFF">
<path d="M 25.000 165.500 L 25.000 312.000 43.500 312.000 L 62.000 312.000 62.000 247.500 L 62.000 183.000 84.000 183.000 C 97.814 183.000 106.000 183.367 106.000 183.987 C 106.000 184.951 102.783 197.457 99.437 209.500 C 98.520 212.800 97.380 217.443 96.903 219.817 C 96.426 222.191 95.827 224.471 95.572 224.884 C 94.976 225.849 89.632 245.570 84.566 265.500 C 83.308 270.450 81.575 276.975 80.715 280.000 C 79.855 283.025 78.161 289.100 76.952 293.500 C 75.742 297.900 74.133 303.493 73.376 305.928 C 72.619 308.364 72.000 310.726 72.000 311.178 C 72.000 312.249 108.725 312.254 109.387 311.183 C 109.896 310.360 111.673 303.922 116.479 285.500 C 119.850 272.574 122.665 262.120 124.958 254.000 C 125.968 250.425 127.564 244.575 128.504 241.000 C 129.444 237.425 131.002 231.575 131.966 228.000 C 132.930 224.425 134.488 218.575 135.428 215.000 C 137.648 206.559 140.817 194.804 142.572 188.500 C 143.337 185.750 144.917 179.900 146.081 175.500 C 147.246 171.100 148.991 164.575 149.959 161.000 C 150.927 157.425 152.484 151.575 153.419 148.000 C 154.354 144.425 155.935 138.575 156.931 135.000 C 157.927 131.425 159.505 125.575 160.437 122.000 C 161.369 118.425 162.821 113.069 163.664 110.099 C 164.508 107.128 166.215 100.603 167.460 95.599 C 168.704 90.594 170.459 83.913 171.361 80.750 C 172.262 77.588 173.738 72.413 174.639 69.250 C 175.541 66.088 177.296 59.406 178.540 54.401 C 179.785 49.397 181.492 42.872 182.336 39.901 C 184.425 32.544 186.128 26.142 187.033 22.250 L 187.789 19.000 168.895 19.000 C 151.947 19.000 150.000 19.171 150.000 20.662 C 150.000 21.576 149.276 24.839 148.392 27.912 C 146.211 35.486 143.517 45.258 141.612 52.500 C 140.745 55.800 139.119 61.875 138.000 66.000 C 136.881 70.125 135.315 75.975 134.519 79.000 C 130.555 94.074 128.675 100.939 127.263 105.500 C 126.412 108.250 125.385 112.075 124.982 114.000 C 124.579 115.925 123.016 122.000 121.509 127.500 C 120.001 133.000 118.258 139.525 117.634 142.000 L 116.500 146.500 89.250 146.766 L 62.000 147.032 62.000 83.016 L 62.000 19.000 43.500 19.000 L 25.000 19.000 25.000 165.500 "/></g>
<g fill="#ADFF2FFF" stroke="#ADFF2FFF">
<path d="M 491.983 21.544 C 491.451 22.943 490.755 25.306 490.436 26.794 C 490.116 28.282 489.018 32.425 487.996 36.000 C 486.973 39.575 485.438 45.200 484.585 48.500 C 483.732 51.800 482.183 57.650 481.143 61.500 C 480.103 65.350 478.279 72.100 477.090 76.500 C 475.900 80.900 474.222 87.200 473.361 90.500 C 472.499 93.800 470.971 99.425 469.965 103.000 C 468.959 106.575 467.383 112.425 466.462 116.000 C 465.541 119.575 463.998 125.425 463.034 129.000 C 462.070 132.575 460.559 138.200 459.677 141.500 C 458.795 144.800 457.096 151.100 455.903 155.500 C 451.217 172.774 450.151 176.734 448.500 183.000 C 447.558 186.575 445.998 192.425 445.034 196.000 C 444.070 199.575 442.516 205.425 441.581 209.000 C 440.646 212.575 439.065 218.425 438.069 222.000 C 437.073 225.575 435.541 231.200 434.665 234.500 C 433.789 237.800 432.117 244.100 430.948 248.500 C 429.779 252.900 428.006 259.425 427.007 263.000 C 426.008 266.575 424.442 272.425 423.527 276.000 C 421.825 282.646 418.750 293.961 416.459 302.000 C 415.754 304.475 414.904 307.738 414.570 309.250 L 413.962 312.000 495.481 312.000 L 577.000 312.000 577.000 294.000 L 577.000 276.000 519.090 276.000 L 461.180 276.000 462.480 270.750 C 463.194 267.863 464.764 261.900 465.968 257.500 C 467.172 253.100 468.386 248.375 468.665 247.000 C 468.943 245.625 469.985 241.800 470.979 238.500 C 472.590 233.149 473.860 228.449 478.544 210.500 C 479.262 207.750 480.756 202.125 481.864 198.000 C 482.972 193.875 484.260 188.925 484.727 187.000 L 485.575 183.500 531.287 183.240 L 577.000 182.980 577.000 164.990 L 577.000 147.000 536.500 147.000 C 514.225 147.000 496.000 146.715 496.000 146.366 C 496.000 145.671 497.075 141.440 500.158 130.000 C 501.270 125.875 502.782 120.250 503.519 117.500 C 504.255 114.750 505.609 109.844 506.528 106.599 C 507.446 103.353 509.215 96.603 510.460 91.599 C 511.704 86.594 513.459 79.913 514.361 76.750 C 516.492 69.275 518.640 61.206 519.418 57.750 L 520.038 55.000 548.519 55.000 L 577.000 55.000 577.000 37.000 L 577.000 19.000 534.975 19.000 L 492.950 19.000 491.983 21.544 "/></g>
<g fill="#C9FF76FF" stroke="#C9FF76FF">
<path d="M 207.802 18.531 C 207.498 18.835 226.094 19.056 249.125 19.021 L 291.000 18.959 291.248 165.480 L 291.497 312.000 291.498 165.250 L 291.500 18.500 249.927 18.239 C 227.063 18.096 208.106 18.227 207.802 18.531 "/></g>
<g fill="#C9FF76FF" stroke="#C9FF76FF">
<path d="M 485.654 183.750 C 485.399 184.163 505.735 184.266 530.845 183.980 L 576.500 183.460 531.309 183.230 C 506.454 183.104 485.909 183.338 485.654 183.750 "/></g>
<g fill="#D9FF9EFF" stroke="#D9FF9EFF">
<path d="M 169.156 18.958 C 179.967 19.256 188.603 19.163 188.347 18.750 C 188.091 18.338 179.246 18.094 168.691 18.208 L 149.500 18.417 169.156 18.958 "/></g>
<g fill="#D9FF9EFF" stroke="#D9FF9EFF">
<path d="M 235.667 55.667 C 235.300 56.033 235.007 56.821 235.015 57.417 C 235.025 58.089 235.322 58.041 235.799 57.290 C 236.285 56.526 240.052 55.958 246.034 55.748 L 255.500 55.415 245.917 55.208 C 240.646 55.093 236.033 55.300 235.667 55.667 "/></g>
<g fill="#C9FF76FF" stroke="#C9FF76FF">
<path d="M 138.571 273.571 C 138.204 275.037 138.096 276.429 138.331 276.665 C 138.567 276.900 139.061 275.894 139.429 274.429 C 139.796 272.963 139.904 271.571 139.669 271.335 C 139.433 271.100 138.939 272.106 138.571 273.571 "/></g>
<g fill="#C9FF76FF" stroke="#C9FF76FF">
<path d="M 81.571 273.571 C 81.204 275.037 81.096 276.429 81.331 276.665 C 81.567 276.900 82.061 275.894 82.429 274.429 C 82.796 272.963 82.904 271.571 82.669 271.335 C 82.433 271.100 81.939 272.106 81.571 273.571 "/></g>
<g fill="#C9FF76FF" stroke="#C9FF76FF">
<path d="M 469.571 242.571 C 469.204 244.037 469.096 245.429 469.331 245.665 C 469.567 245.900 470.061 244.894 470.429 243.429 C 470.796 241.963 470.904 240.571 470.669 240.335 C 470.433 240.100 469.939 241.106 469.571 242.571 "/></g>
<g fill="#C9FF76FF" stroke="#C9FF76FF">
<path d="M 438.571 217.571 C 438.204 219.037 438.096 220.429 438.331 220.665 C 438.567 220.900 439.061 219.894 439.429 218.429 C 439.796 216.963 439.904 215.571 439.669 215.335 C 439.433 215.100 438.939 216.106 438.571 217.571 "/></g>
<g fill="#C9FF76FF" stroke="#C9FF76FF">
<path d="M 137.571 205.571 C 137.204 207.037 137.096 208.429 137.331 208.665 C 137.567 208.900 138.061 207.894 138.429 206.429 C 138.796 204.963 138.904 203.571 138.669 203.335 C 138.433 203.100 137.939 204.106 137.571 205.571 "/></g>
<g fill="#C9FF76FF" stroke="#C9FF76FF">
<path d="M 212.571 138.571 C 212.204 140.037 212.096 141.429 212.331 141.665 C 212.567 141.900 213.061 140.894 213.429 139.429 C 213.796 137.963 213.904 136.571 213.669 136.335 C 213.433 136.100 212.939 137.106 212.571 138.571 "/></g>
<g fill="#C9FF76FF" stroke="#C9FF76FF">
<path d="M 181.571 113.571 C 181.204 115.037 181.096 116.429 181.331 116.665 C 181.567 116.900 182.061 115.894 182.429 114.429 C 182.796 112.963 182.904 111.571 182.669 111.335 C 182.433 111.100 181.939 112.106 181.571 113.571 "/></g>
<g fill="#C9FF76FF" stroke="#C9FF76FF">
<path d="M 512.571 82.571 C 512.204 84.037 512.096 85.429 512.331 85.665 C 512.567 85.900 513.061 84.894 513.429 83.429 C 513.796 81.963 513.904 80.571 513.669 80.335 C 513.433 80.100 512.939 81.106 512.571 82.571 "/></g>
</svg>
