<?xml version="1.0" encoding="utf-8"?>
<!DOCTYPE svg PUBLIC "-//W3C//DTD SVG 20010904//EN" "http://www.w3.org/TR/2001/REC-SVG-20010904/DTD/svg10.dtd">
<svg version="1.0" xmlns="http://www.w3.org/2000/svg" width="602pt" height="602pt" viewBox="0 0 602 602" style="" preserveAspectRatio="xMidYMid meet">
<g fill="#ADFF2FFF" stroke="#ADFF2FFF">
<path d="M 66.165 171.311 C 30.874 241.882 2.000 300.242 2.000 301.000 C 2.000 301.758 30.874 360.118 66.165 430.689 L 130.329 559.000 301.000 559.000 L 471.671 559.000 535.835 430.689 C 571.126 360.118 600.000 301.758 600.000 301.000 C 600.000 300.242 571.126 241.882 535.835 171.311 L 471.671 43.000 301.000 43.000 L 130.329 43.000 66.165 171.311 M 346.000 110.004 C 346.000 111.088 342.028 126.453 339.021 137.000 C 338.002 140.575 336.870 144.963 336.505 146.750 L 335.841 150.000 392.294 150.000 L 448.747 150.000 465.123 182.685 C 474.131 200.662 481.650 215.737 481.833 216.185 C 482.017 216.633 445.063 217.000 399.714 217.000 L 317.262 217.000 316.644 220.250 C 316.304 222.038 315.316 225.975 314.448 229.000 C 313.580 232.025 311.800 238.550 310.492 243.500 C 309.184 248.450 307.240 255.760 306.173 259.745 L 304.231 266.991 405.847 267.245 L 507.463 267.500 515.860 284.250 L 524.258 301.000 515.860 317.750 L 507.463 334.500 396.801 334.754 L 286.139 335.009 284.446 340.754 C 283.515 343.914 281.908 349.763 280.876 353.750 C 277.445 367.009 275.216 375.438 273.539 381.500 C 272.626 384.800 270.318 393.350 268.411 400.500 C 266.504 407.650 263.603 418.450 261.964 424.500 C 260.325 430.550 256.966 443.150 254.499 452.500 C 249.522 471.358 246.570 482.351 244.763 488.750 L 243.563 493.000 208.714 493.000 L 173.865 493.000 174.587 490.750 C 174.984 489.513 175.641 487.150 176.047 485.500 C 176.453 483.850 177.536 479.800 178.453 476.500 C 180.160 470.359 184.392 454.572 190.517 431.500 C 195.154 414.031 199.518 397.795 201.538 390.500 C 202.452 387.200 204.054 381.238 205.100 377.250 C 206.145 373.263 207.855 366.738 208.900 362.750 C 209.946 358.763 211.550 352.800 212.466 349.500 C 213.382 346.200 215.219 339.450 216.547 334.500 C 217.876 329.550 221.018 317.850 223.529 308.500 C 226.041 299.150 229.457 286.325 231.121 280.000 C 234.473 267.260 234.843 265.878 237.883 254.750 C 239.047 250.488 240.951 243.513 242.113 239.250 C 243.275 234.988 245.002 228.350 245.949 224.500 L 247.671 217.500 183.755 217.243 C 148.601 217.101 119.987 216.622 120.169 216.178 C 120.351 215.733 127.869 200.662 136.877 182.685 L 153.253 150.000 209.608 150.000 L 265.962 150.000 266.564 147.250 C 266.895 145.738 267.612 143.150 268.157 141.500 C 269.043 138.821 273.991 120.460 275.568 114.000 C 275.903 112.625 276.349 110.938 276.558 110.250 C 277.045 108.646 346.000 108.403 346.000 110.004 "/></g>
</svg>
