<?xml version="1.0" encoding="utf-8"?>
<!DOCTYPE svg PUBLIC "-//W3C//DTD SVG 20010904//EN" "http://www.w3.org/TR/2001/REC-SVG-20010904/DTD/svg10.dtd">
<svg version="1.0" xmlns="http://www.w3.org/2000/svg" width="602pt" height="602pt" viewBox="0 0 602 602" style="" preserveAspectRatio="xMidYMid meet">
<g fill="#000000FF" stroke="#000000FF">
<path d="M 298.821 17.283 C 298.095 17.989 293.675 21.237 289.000 24.500 C 284.325 27.763 279.905 31.011 279.179 31.717 C 278.452 32.422 277.524 33.000 277.117 33.000 C 276.710 33.000 275.505 33.800 274.439 34.778 C 273.372 35.755 268.675 39.221 264.000 42.479 C 259.325 45.737 255.275 48.680 255.000 49.019 C 254.475 49.666 235.225 63.678 222.163 72.923 C 217.948 75.905 214.275 78.632 214.000 78.983 C 213.725 79.334 210.350 81.836 206.500 84.543 C 202.650 87.250 197.648 90.823 195.385 92.483 C 193.122 94.142 190.032 96.400 188.518 97.500 C 187.005 98.600 180.981 102.997 175.133 107.270 C 169.285 111.544 160.900 117.582 156.500 120.688 C 152.100 123.794 148.275 126.620 148.000 126.967 C 147.725 127.314 143.675 130.254 139.000 133.500 C 134.325 136.746 130.275 139.671 130.000 139.999 C 129.464 140.638 109.727 155.013 97.153 163.923 C 92.944 166.905 89.275 169.627 89.000 169.971 C 88.497 170.601 73.834 181.175 69.500 184.034 C 68.221 184.877 65.738 186.677 63.981 188.034 C 62.225 189.390 57.951 192.525 54.483 195.000 C 41.291 204.416 23.480 217.429 23.000 218.001 C 22.725 218.329 18.675 221.269 14.000 224.534 C 3.448 231.904 2.000 233.129 2.000 234.688 C 2.000 235.371 4.196 242.584 6.881 250.715 C 9.565 258.847 13.903 272.250 16.520 280.500 C 19.138 288.750 22.148 297.975 23.209 301.000 C 24.271 304.025 25.952 309.200 26.946 312.500 C 27.940 315.800 30.557 323.900 32.761 330.500 C 34.965 337.100 39.330 350.600 42.460 360.500 C 45.590 370.400 48.754 380.075 49.491 382.000 C 50.228 383.925 53.852 394.950 57.544 406.500 C 61.237 418.050 65.722 432.000 67.512 437.500 C 69.302 443.000 74.484 458.975 79.029 473.000 C 83.573 487.025 89.202 504.350 91.537 511.500 C 93.873 518.650 99.481 535.975 104.000 550.000 C 108.520 564.025 112.973 577.750 113.896 580.500 L 115.576 585.500 156.038 585.732 L 196.500 585.964 204.000 574.732 C 208.125 568.554 211.749 563.275 212.053 563.000 C 212.357 562.725 213.683 560.700 215.000 558.500 C 216.317 556.300 217.643 554.275 217.947 554.000 C 218.251 553.725 222.550 547.432 227.500 540.015 C 232.450 532.598 237.063 525.929 237.750 525.194 C 238.438 524.459 239.000 523.471 239.000 523.000 C 239.000 522.529 239.563 521.546 240.250 520.816 C 240.938 520.086 248.649 508.804 257.387 495.744 L 273.274 472.000 301.000 472.000 L 328.726 472.000 344.613 495.750 C 353.351 508.813 360.741 519.725 361.036 520.000 C 361.331 520.275 364.557 525.000 368.204 530.500 C 376.972 543.721 388.740 561.240 389.719 562.529 C 390.148 563.096 393.875 568.596 398.000 574.753 L 405.500 585.947 446.044 585.973 L 486.588 586.000 488.315 580.250 C 490.083 574.357 502.857 534.740 510.481 511.500 C 512.827 504.350 518.452 487.025 522.981 473.000 C 527.510 458.975 533.139 441.650 535.488 434.500 C 537.838 427.350 542.325 413.400 545.459 403.500 C 548.594 393.600 551.771 383.925 552.518 382.000 C 553.266 380.075 554.353 376.925 554.933 375.000 C 555.513 373.075 557.961 365.425 560.374 358.000 C 562.786 350.575 567.325 336.400 570.459 326.500 C 573.594 316.600 576.771 306.925 577.518 305.000 C 578.266 303.075 579.353 299.925 579.934 298.000 C 581.368 293.245 591.367 262.205 596.128 247.728 C 598.258 241.254 600.000 235.392 600.000 234.701 C 600.000 233.128 598.567 231.914 588.000 224.534 C 583.325 221.269 579.275 218.329 579.000 218.001 C 578.464 217.362 558.727 202.987 546.153 194.077 C 541.944 191.095 538.275 188.376 538.000 188.036 C 537.725 187.697 532.100 183.630 525.500 179.000 C 518.900 174.370 513.275 170.303 513.000 169.964 C 512.725 169.624 509.056 166.905 504.847 163.923 C 492.273 155.013 472.536 140.638 472.000 139.999 C 471.725 139.671 467.675 136.746 463.000 133.500 C 458.325 130.254 454.275 127.314 454.000 126.967 C 453.725 126.620 449.900 123.792 445.500 120.683 C 441.100 117.574 432.725 111.536 426.890 107.265 C 421.054 102.994 415.031 98.600 413.505 97.500 C 411.979 96.400 408.878 94.142 406.615 92.483 C 404.352 90.823 399.350 87.250 395.500 84.543 C 391.650 81.836 388.275 79.334 388.000 78.983 C 387.725 78.632 384.056 75.905 379.847 72.923 C 367.273 64.013 347.536 49.638 347.000 48.999 C 346.725 48.671 342.675 45.737 338.000 42.479 C 333.325 39.221 328.628 35.755 327.561 34.778 C 326.495 33.800 325.290 33.000 324.883 33.000 C 324.476 33.000 323.548 32.428 322.821 31.728 C 322.095 31.029 318.350 28.249 314.500 25.550 C 310.650 22.851 306.228 19.598 304.673 18.321 C 301.422 15.651 300.644 15.513 298.821 17.283 M 307.457 102.219 C 310.780 104.540 314.372 107.240 315.439 108.219 C 316.505 109.199 317.710 110.000 318.117 110.000 C 318.524 110.000 319.452 110.576 320.179 111.281 C 320.905 111.985 326.900 116.351 333.500 120.982 C 340.100 125.613 345.950 129.756 346.500 130.188 C 349.107 132.237 357.501 138.268 367.500 145.279 C 373.550 149.520 387.275 159.297 398.000 167.005 C 417.026 180.679 446.648 201.917 453.886 207.075 C 455.874 208.491 469.650 218.301 484.500 228.874 C 499.350 239.448 512.258 248.722 513.184 249.483 C 514.110 250.244 516.135 251.681 517.684 252.676 C 519.233 253.670 521.372 255.275 522.439 256.242 C 523.505 257.209 524.742 258.000 525.189 258.000 C 527.144 258.000 527.613 256.472 500.506 338.500 C 494.327 357.200 488.286 375.650 487.083 379.500 C 485.881 383.350 483.848 389.425 482.567 393.000 C 480.586 398.530 471.271 426.756 446.261 503.016 C 443.642 511.000 441.064 517.705 440.531 517.917 C 439.997 518.129 438.086 516.097 436.283 513.401 C 434.480 510.706 432.658 508.050 432.234 507.500 C 431.810 506.950 428.476 502.000 424.825 496.500 C 415.657 482.691 381.294 431.731 380.306 430.479 C 379.863 429.917 375.962 424.179 371.638 417.729 L 363.775 406.000 301.000 406.000 L 238.225 406.000 230.362 417.750 C 226.038 424.213 222.275 429.725 222.000 430.000 C 221.725 430.275 213.850 441.904 204.500 455.842 C 166.245 512.869 162.376 518.492 161.525 518.308 C 161.036 518.202 159.121 513.252 157.269 507.308 C 155.417 501.364 153.282 494.925 152.525 493.000 C 151.768 491.075 146.121 473.975 139.977 455.000 C 133.833 436.025 128.196 418.925 127.450 417.000 C 126.704 415.075 125.108 410.350 123.903 406.500 C 122.698 402.650 120.697 396.575 119.456 393.000 C 118.215 389.425 109.459 362.875 99.997 334.000 C 90.536 305.125 81.266 276.984 79.397 271.465 C 75.968 261.336 75.327 258.000 76.811 258.000 C 77.258 258.000 78.495 257.209 79.561 256.242 C 80.628 255.275 82.767 253.670 84.316 252.676 C 85.865 251.681 87.890 250.244 88.816 249.483 C 89.742 248.722 102.650 239.448 117.500 228.874 C 132.350 218.301 146.126 208.491 148.114 207.075 C 150.101 205.659 159.257 199.100 168.459 192.500 C 177.662 185.900 186.467 179.600 188.026 178.500 C 189.584 177.400 198.363 171.100 207.533 164.500 C 228.210 149.618 246.234 136.799 251.500 133.230 C 253.700 131.739 255.725 130.256 256.000 129.934 C 256.275 129.612 261.900 125.572 268.500 120.955 C 275.100 116.339 281.095 111.985 281.821 111.281 C 282.548 110.576 283.476 110.000 283.883 110.000 C 284.290 110.000 285.495 109.203 286.561 108.229 C 288.860 106.129 300.299 98.000 300.957 98.000 C 301.208 98.000 304.133 99.899 307.457 102.219 "/></g>
</svg>
