<?xml version="1.0" encoding="utf-8"?>
<!DOCTYPE svg PUBLIC "-//W3C//DTD SVG 20010904//EN" "http://www.w3.org/TR/2001/REC-SVG-20010904/DTD/svg10.dtd">
<svg version="1.0" xmlns="http://www.w3.org/2000/svg" width="602pt" height="339pt" viewBox="0 0 602 339" style="" preserveAspectRatio="xMidYMid meet">
<g fill="#000000FF" stroke="#000000FF">
<path d="M 204.975 22.565 C 204.439 23.976 204.000 25.778 204.000 26.570 C 204.000 27.362 202.399 33.745 200.442 40.755 C 198.486 47.765 195.980 56.875 194.875 61.000 C 191.975 71.820 190.444 77.520 188.158 86.000 C 187.047 90.125 185.373 96.425 184.440 100.000 C 183.506 103.575 181.927 109.425 180.931 113.000 C 179.935 116.575 178.375 122.425 177.465 126.000 C 175.625 133.223 173.094 142.469 170.510 151.401 C 169.571 154.647 167.760 161.397 166.487 166.401 C 165.213 171.406 163.206 179.100 162.027 183.500 C 160.848 187.900 159.041 194.650 158.013 198.500 C 156.984 202.350 155.693 207.075 155.143 209.000 C 154.593 210.925 153.444 215.200 152.589 218.500 C 150.932 224.895 148.189 235.093 145.059 246.500 C 144.002 250.350 142.373 256.425 141.440 260.000 C 140.506 263.575 138.927 269.425 137.931 273.000 C 136.935 276.575 135.434 282.200 134.596 285.500 C 131.966 295.860 128.840 307.329 127.393 311.928 C 126.627 314.364 126.000 316.951 126.000 317.678 C 126.000 318.763 140.775 319.000 208.500 319.000 L 291.000 319.000 291.000 169.500 L 291.000 20.000 248.475 20.000 L 205.950 20.000 204.975 22.565 M 254.000 169.500 L 254.000 282.000 213.883 282.000 L 173.767 282.000 174.407 279.750 C 174.760 278.513 175.303 276.150 175.615 274.500 C 175.927 272.850 176.991 268.800 177.979 265.500 C 179.718 259.694 182.389 249.935 185.643 237.500 C 186.506 234.200 188.002 228.575 188.966 225.000 C 189.930 221.425 191.488 215.575 192.428 212.000 C 193.368 208.425 195.014 202.350 196.085 198.500 C 200.456 182.788 204.287 168.294 204.954 164.941 C 205.343 162.984 206.383 159.159 207.265 156.441 C 208.146 153.724 209.602 148.575 210.500 145.000 C 211.397 141.425 212.839 136.025 213.705 133.000 C 214.570 129.975 216.296 123.406 217.540 118.401 C 218.785 113.397 220.554 106.647 221.472 103.401 C 222.391 100.156 223.745 95.250 224.481 92.500 C 226.337 85.572 229.532 73.959 232.116 64.750 L 234.291 57.000 244.146 57.000 L 254.000 57.000 254.000 169.500 "/></g>
<g fill="#000000FF" stroke="#000000FF">
<path d="M 311.000 169.500 L 311.000 319.000 334.455 319.000 L 357.909 319.000 358.538 315.250 C 358.883 313.188 359.753 309.475 360.471 307.000 C 361.905 302.052 365.205 289.842 367.632 280.500 C 368.489 277.200 370.005 271.575 371.000 268.000 C 371.995 264.425 373.511 258.800 374.368 255.500 C 375.226 252.200 376.900 245.900 378.090 241.500 C 379.279 237.100 381.103 230.350 382.143 226.500 C 383.183 222.650 384.732 216.800 385.585 213.500 C 386.438 210.200 387.981 204.575 389.014 201.000 C 390.047 197.425 391.177 193.038 391.525 191.250 L 392.159 188.000 411.604 188.000 C 434.088 188.000 431.243 189.644 434.964 174.500 C 436.180 169.550 437.988 162.575 438.981 159.000 C 439.975 155.425 441.556 149.575 442.496 146.000 C 443.436 142.425 445.029 136.575 446.035 133.000 C 447.041 129.425 448.562 123.800 449.415 120.500 C 451.054 114.158 453.761 104.089 456.941 92.500 C 457.998 88.650 459.627 82.575 460.560 79.000 C 461.494 75.425 463.073 69.575 464.069 66.000 C 465.065 62.425 466.566 56.800 467.404 53.500 C 470.034 43.140 473.160 31.671 474.607 27.072 C 475.373 24.636 476.000 22.049 476.000 21.322 C 476.000 20.237 461.225 20.000 393.500 20.000 L 311.000 20.000 311.000 169.500 M 428.000 57.487 C 428.000 57.903 426.653 63.070 422.000 80.500 C 418.663 93.000 415.531 104.572 413.879 110.500 C 412.807 114.350 411.551 119.075 411.090 121.000 C 410.628 122.925 409.007 129.000 407.489 134.500 C 405.971 140.000 404.434 145.850 404.074 147.500 L 403.419 150.500 375.709 150.766 L 348.000 151.032 348.000 104.016 L 348.000 57.000 388.000 57.000 C 410.000 57.000 428.000 57.219 428.000 57.487 "/></g>
<g fill="#000000FF" stroke="#000000FF">
<path d="M 20.000 169.500 L 20.000 319.000 38.500 319.000 L 57.000 319.000 57.000 253.500 L 57.000 188.000 79.500 188.000 C 96.830 188.000 102.002 188.287 102.007 189.250 C 102.013 190.389 98.388 204.447 95.883 213.000 C 94.228 218.651 87.724 243.074 84.566 255.500 C 83.308 260.450 81.499 267.200 80.546 270.500 C 78.119 278.905 76.372 285.232 73.919 294.500 C 72.754 298.900 70.946 305.495 69.901 309.155 C 66.841 319.870 65.371 319.000 86.525 319.000 L 105.050 319.000 106.105 316.250 C 106.686 314.738 108.416 308.550 109.950 302.500 C 111.483 296.450 113.443 289.025 114.303 286.000 C 115.164 282.975 116.631 277.575 117.563 274.000 C 118.495 270.425 120.073 264.575 121.069 261.000 C 122.065 257.425 123.630 251.575 124.546 248.000 C 126.256 241.333 128.541 232.828 131.935 220.500 C 132.995 216.650 134.632 210.575 135.572 207.000 C 136.512 203.425 138.070 197.575 139.034 194.000 C 139.998 190.425 141.553 184.575 142.489 181.000 C 143.425 177.425 145.005 171.575 146.000 168.000 C 146.995 164.425 148.520 158.800 149.388 155.500 C 150.255 152.200 151.817 146.350 152.857 142.500 C 153.897 138.650 155.721 131.900 156.910 127.500 C 158.100 123.100 159.778 116.800 160.639 113.500 C 161.501 110.200 163.029 104.575 164.035 101.000 C 165.041 97.425 166.562 91.800 167.415 88.500 C 168.268 85.200 169.881 79.125 171.000 75.000 C 173.136 67.126 174.569 61.709 178.013 48.500 C 179.160 44.100 180.948 37.575 181.988 34.000 C 183.028 30.425 184.313 25.813 184.845 23.750 L 185.813 20.000 166.406 20.000 C 148.903 20.000 147.000 20.165 147.000 21.679 C 147.000 22.603 146.127 26.315 145.060 29.929 C 143.993 33.543 142.354 39.425 141.419 43.000 C 140.484 46.575 138.930 52.425 137.966 56.000 C 137.002 59.575 135.447 65.425 134.511 69.000 C 133.575 72.575 131.995 78.425 131.000 82.000 C 130.005 85.575 128.489 91.200 127.632 94.500 C 126.774 97.800 125.100 104.100 123.910 108.500 C 118.702 127.768 117.879 130.825 116.374 136.500 C 115.498 139.800 114.268 144.300 113.641 146.500 L 112.500 150.500 84.750 150.766 L 57.000 151.032 57.000 85.516 L 57.000 20.000 38.500 20.000 L 20.000 20.000 20.000 169.500 "/></g>
<g fill="#000000FF" stroke="#000000FF">
<path d="M 495.895 22.750 C 495.314 24.263 493.584 30.450 492.050 36.500 C 490.517 42.550 488.557 49.975 487.697 53.000 C 486.836 56.025 485.369 61.425 484.437 65.000 C 483.505 68.575 481.927 74.425 480.931 78.000 C 479.935 81.575 478.434 87.200 477.596 90.500 C 475.101 100.328 471.895 112.104 469.974 118.500 C 468.983 121.800 467.962 125.625 467.706 127.000 C 467.450 128.375 466.488 132.200 465.569 135.500 C 464.649 138.800 462.756 145.775 461.363 151.000 C 459.970 156.225 457.952 163.650 456.879 167.500 C 455.807 171.350 454.550 176.075 454.086 178.000 C 453.623 179.925 452.019 186.000 450.522 191.500 C 449.025 197.000 447.440 202.850 447.000 204.500 C 443.663 217.000 440.531 228.572 438.879 234.500 C 437.807 238.350 436.552 243.075 436.092 245.000 C 435.631 246.925 434.326 251.875 433.192 256.000 C 432.058 260.125 429.956 268.000 428.521 273.500 C 424.439 289.150 422.059 297.960 420.012 305.000 C 418.972 308.575 417.687 313.188 417.155 315.250 L 416.187 319.000 499.094 319.000 L 582.000 319.000 582.000 300.500 L 582.000 282.000 523.389 282.000 L 464.777 282.000 465.450 278.250 C 465.819 276.188 466.818 272.025 467.669 269.000 C 470.385 259.349 472.764 250.672 474.388 244.500 C 475.255 241.200 476.817 235.350 477.857 231.500 C 478.897 227.650 480.721 220.900 481.910 216.500 C 483.100 212.100 484.780 205.800 485.645 202.500 C 486.510 199.200 487.732 194.700 488.359 192.500 L 489.500 188.500 535.750 188.240 L 582.000 187.980 582.000 169.490 L 582.000 151.000 541.000 151.000 C 508.870 151.000 499.999 150.730 499.993 149.750 C 499.987 148.573 502.839 137.645 506.974 123.000 C 507.984 119.425 509.575 113.575 510.511 110.000 C 511.447 106.425 513.002 100.575 513.966 97.000 C 514.930 93.425 516.488 87.575 517.428 84.000 C 519.023 77.934 522.347 65.722 523.961 60.000 L 524.666 57.500 553.333 57.235 L 582.000 56.969 582.000 38.485 L 582.000 20.000 539.475 20.000 L 496.950 20.000 495.895 22.750 "/></g>
</svg>
