<?xml version="1.0" encoding="utf-8"?>
<!DOCTYPE svg PUBLIC "-//W3C//DTD SVG 20010904//EN" "http://www.w3.org/TR/2001/REC-SVG-20010904/DTD/svg10.dtd">
<svg version="1.0" xmlns="http://www.w3.org/2000/svg" width="602pt" height="602pt" viewBox="0 0 602 602" style="" preserveAspectRatio="xMidYMid meet">
<g fill="#ADFF2FFF" stroke="#ADFF2FFF">
<path d="M 1.000 300.803 L 1.000 334.839 5.750 336.326 C 8.363 337.143 11.625 338.100 13.000 338.452 C 14.375 338.805 19.550 340.189 24.500 341.528 C 38.041 345.191 66.330 352.768 76.500 355.454 C 81.450 356.762 89.100 358.819 93.500 360.025 C 97.900 361.232 104.650 363.034 108.500 364.031 C 112.350 365.027 118.200 366.598 121.500 367.521 C 124.800 368.444 130.650 370.020 134.500 371.023 C 138.350 372.027 145.775 373.999 151.000 375.405 C 156.225 376.812 168.150 380.012 177.500 382.516 C 186.850 385.020 199.225 388.348 205.000 389.911 C 210.775 391.474 220.675 394.124 227.000 395.800 C 233.325 397.475 242.100 399.834 246.500 401.040 C 259.373 404.571 261.310 405.087 265.000 405.972 C 271.366 407.499 287.417 411.850 292.500 413.427 C 298.817 415.387 303.183 415.387 309.500 413.427 C 314.583 411.850 330.634 407.499 337.000 405.972 C 340.690 405.087 342.627 404.571 355.500 401.040 C 359.900 399.834 368.450 397.536 374.500 395.934 C 380.550 394.332 391.125 391.504 398.000 389.651 C 404.875 387.797 417.700 384.350 426.500 381.991 C 435.300 379.631 446.550 376.610 451.500 375.276 C 456.450 373.942 463.650 372.029 467.500 371.025 C 471.350 370.021 477.200 368.444 480.500 367.521 C 483.800 366.598 489.650 365.027 493.500 364.031 C 497.350 363.034 504.100 361.232 508.500 360.025 C 512.900 358.819 520.550 356.762 525.500 355.454 C 535.670 352.768 563.959 345.191 577.500 341.528 C 582.450 340.189 587.625 338.805 589.000 338.452 C 590.375 338.100 593.638 337.143 596.250 336.326 L 601.000 334.839 601.000 300.803 L 601.000 266.767 598.750 267.400 C 597.513 267.748 590.425 269.648 583.000 271.623 C 566.884 275.909 566.620 275.980 552.000 279.927 C 545.675 281.635 534.650 284.585 527.500 286.483 C 520.350 288.381 508.425 291.565 501.000 293.557 C 493.575 295.550 486.150 297.537 484.500 297.973 C 482.850 298.409 477.900 299.753 473.500 300.960 C 469.100 302.166 460.325 304.516 454.000 306.182 C 447.675 307.847 441.150 309.575 439.500 310.021 C 404.958 319.358 387.187 324.129 374.000 327.607 C 356.722 332.163 355.992 332.358 346.750 334.883 C 342.488 336.047 335.513 337.942 331.250 339.093 C 326.988 340.244 320.350 342.045 316.500 343.095 C 302.965 346.786 301.176 347.050 296.750 346.006 C 294.413 345.455 289.350 344.145 285.500 343.095 C 281.650 342.045 275.013 340.244 270.750 339.093 C 266.488 337.942 259.513 336.047 255.250 334.883 C 246.008 332.358 245.278 332.163 228.000 327.607 C 214.813 324.129 197.042 319.358 162.500 310.021 C 160.850 309.575 154.325 307.847 148.000 306.182 C 141.675 304.516 132.900 302.166 128.500 300.960 C 124.100 299.753 119.150 298.409 117.500 297.973 C 115.850 297.537 108.425 295.550 101.000 293.557 C 93.575 291.565 81.650 288.381 74.500 286.483 C 67.350 284.585 56.325 281.635 50.000 279.927 C 35.380 275.980 35.116 275.909 19.000 271.623 C 11.575 269.648 4.488 267.748 3.250 267.400 L 1.000 266.767 1.000 300.803 "/></g>
</svg>
