<?xml version="1.0" encoding="utf-8"?>
<!DOCTYPE svg PUBLIC "-//W3C//DTD SVG 20010904//EN" "http://www.w3.org/TR/2001/REC-SVG-20010904/DTD/svg10.dtd">
<svg version="1.0" xmlns="http://www.w3.org/2000/svg" width="602pt" height="602pt" viewBox="0 0 602 602" style="" preserveAspectRatio="xMidYMid meet">
<g fill="#ADFF2FFF" stroke="#ADFF2FFF">
<path d="M 86.248 86.252 L 1.000 171.504 1.000 296.752 L 1.000 422.000 181.859 422.000 L 362.717 422.000 452.235 511.500 L 541.754 601.000 571.377 601.000 L 601.000 601.000 601.000 571.450 L 601.000 541.900 511.500 452.397 L 422.000 362.894 422.000 181.947 L 422.000 1.000 296.748 1.000 L 171.496 1.000 86.248 86.252 M 339.000 212.000 L 339.000 339.000 212.000 339.000 L 85.000 339.000 85.000 273.253 L 85.000 207.506 146.247 146.253 L 207.494 85.000 273.247 85.000 L 339.000 85.000 339.000 212.000 "/></g>
<g fill="#D6FF97FF" stroke="#D6FF97FF">
<path d="M 272.250 85.746 L 338.000 86.014 338.000 212.007 L 338.000 338.000 212.000 338.000 L 86.000 338.000 85.754 272.500 L 85.507 207.000 85.504 272.750 L 85.500 338.500 212.000 338.500 L 338.500 338.500 338.500 212.000 L 338.500 85.500 272.500 85.489 L 206.500 85.478 272.250 85.746 "/></g>
<g fill="#D6FF97FF" stroke="#D6FF97FF">
<path d="M 86.000 85.997 L 1.500 170.506 86.000 85.997 L 170.500 1.488 86.000 85.997 "/></g>
</svg>
