<svg width="81" height="36" viewBox="0 0 81 36" fill="none" xmlns="http://www.w3.org/2000/svg">
<path d="M27.2733 2.39629C27.202 2.54613 27.1435 2.73749 27.1435 2.8216C27.1435 2.90571 26.9305 3.58355 26.6701 4.32797C26.4099 5.0724 26.0764 6.03983 25.9294 6.47788C25.5435 7.62691 25.3398 8.23222 25.0357 9.13275C24.8878 9.5708 24.6651 10.2398 24.541 10.6195C24.4167 10.9991 24.2066 11.6204 24.0741 12C23.9415 12.3797 23.734 13.0009 23.6129 13.3805C23.3681 14.1476 23.0313 15.1295 22.6875 16.078C22.5625 16.4227 22.3216 17.1395 22.1522 17.6709C21.9827 18.2024 21.7156 19.0195 21.5588 19.4867C21.4019 19.954 21.1615 20.6708 21.0247 21.0797C20.8878 21.4885 20.716 21.9903 20.6428 22.1947C20.5696 22.3991 20.4167 22.8531 20.303 23.2035C20.0825 23.8827 19.7175 24.9656 19.3011 26.177C19.1604 26.5858 18.9437 27.231 18.8195 27.6106C18.6953 27.9903 18.4852 28.6115 18.3526 28.9912C18.2201 29.3708 18.0204 29.9681 17.9089 30.3186C17.559 31.4188 17.143 32.6367 16.9505 33.1251C16.8486 33.3838 16.7651 33.6585 16.7651 33.7357C16.7651 33.8509 18.731 33.8761 27.7423 33.8761H38.7195V18V2.1239H33.0612H27.403L27.2733 2.39629ZM33.7964 18V29.9469H28.4585H23.1208L23.206 29.708C23.253 29.5766 23.3252 29.3257 23.3667 29.1504C23.4082 28.9752 23.5498 28.5451 23.6813 28.1947C23.9127 27.5781 24.2681 26.5418 24.701 25.2212C24.8159 24.8708 25.0149 24.2735 25.1432 23.8938C25.2714 23.5142 25.4787 22.8929 25.6038 22.5133C25.7289 22.1336 25.9479 21.4885 26.0904 21.0797C26.672 19.4111 27.1817 17.8719 27.2705 17.5159C27.3222 17.308 27.4606 16.9018 27.578 16.6132C27.6952 16.3247 27.8889 15.7779 28.0084 15.3982C28.1278 15.0186 28.3196 14.4451 28.4349 14.1239C28.5499 13.8027 28.7796 13.1051 28.9451 12.5736C29.1108 12.0422 29.3462 11.3254 29.4683 10.9806C29.5906 10.636 29.7707 10.1151 29.8687 9.82302C30.1156 9.0873 30.5407 7.85406 30.8846 6.87611L31.174 6.0531H32.4852H33.7964V18Z" fill="black" stroke="black" stroke-width="1.33333"/>
<path d="M41.3806 18V33.8761H44.5014H47.6221L47.7058 33.4779C47.7517 33.2589 47.8675 32.8646 47.963 32.6018C48.1538 32.0763 48.5929 30.7797 48.9158 29.7876C49.0298 29.4372 49.2316 28.8398 49.3639 28.4602C49.4963 28.0805 49.698 27.4832 49.8121 27.1328C49.9262 26.7823 50.149 26.1133 50.3073 25.646C50.4655 25.1788 50.7082 24.462 50.8466 24.0531C50.985 23.6443 51.1911 23.023 51.3046 22.6726C51.4181 22.3221 51.6234 21.7248 51.7608 21.3451C51.8983 20.9655 52.0486 20.4996 52.0949 20.3097L52.1793 19.9646H54.7666C57.7582 19.9646 57.3797 20.1392 57.8748 18.531C58.0366 18.0053 58.2771 17.2646 58.4093 16.885C58.5415 16.5053 58.7519 15.8841 58.8769 15.5044C59.002 15.1248 59.214 14.5035 59.3478 14.1239C59.4817 13.7443 59.6841 13.1469 59.7976 12.7965C60.0156 12.123 60.3758 11.0537 60.799 9.82302C60.9396 9.41417 61.1563 8.76903 61.2805 8.38939C61.4048 8.00974 61.6149 7.3885 61.7474 7.00886C61.8799 6.62921 62.0796 6.03187 62.1911 5.68142C62.5411 4.58125 62.957 3.3633 63.1495 2.87491C63.2514 2.61622 63.3349 2.34149 63.3349 2.26429C63.3349 2.14907 61.369 2.1239 52.3577 2.1239H41.3806V18ZM56.9482 6.10482C56.9482 6.149 56.7689 6.69771 56.1498 8.54868C55.7058 9.87611 55.2891 11.105 55.0693 11.7345C54.9266 12.1434 54.7595 12.6451 54.6982 12.8496C54.6367 13.054 54.421 13.6991 54.219 14.2832C54.0171 14.8673 53.8126 15.4885 53.7647 15.6637L53.6775 15.9823L49.9905 16.0106L46.3036 16.0388V11.046V6.0531H51.6259C54.5531 6.0531 56.9482 6.07636 56.9482 6.10482Z" fill="black" stroke="black" stroke-width="1.33333"/>
<path d="M2.66113 18V33.8761H5.12268H7.58422V26.9204V19.9646H10.578C12.8839 19.9646 13.572 19.9951 13.5727 20.0974C13.5735 20.2183 13.0912 21.7112 12.7579 22.6195C12.5376 23.2196 11.6722 25.8132 11.2521 27.1328C11.0847 27.6584 10.844 28.3752 10.7172 28.7257C10.3942 29.6182 10.1618 30.2901 9.8354 31.2743C9.68039 31.7416 9.43983 32.442 9.30078 32.8306C8.89363 33.9685 8.69804 33.8761 11.5127 33.8761H13.9776L14.118 33.5841C14.1953 33.4235 14.4255 32.7664 14.6296 32.1239C14.8335 31.4814 15.0943 30.6929 15.2088 30.3717C15.3233 30.0504 15.5185 29.477 15.6425 29.0974C15.7665 28.7177 15.9765 28.0965 16.109 27.7168C16.2415 27.3372 16.4498 26.7159 16.5717 26.3363C16.7992 25.6283 17.1032 24.7251 17.5548 23.4159C17.6958 23.0071 17.9137 22.362 18.0387 21.9823C18.1638 21.6027 18.3711 20.9814 18.4994 20.6018C18.6276 20.2221 18.8345 19.6009 18.9591 19.2212C19.0836 18.8416 19.2939 18.2204 19.4262 17.8407C19.5586 17.4611 19.7615 16.8637 19.877 16.5133C19.9924 16.1628 20.2002 15.5416 20.3386 15.1328C20.477 14.7239 20.7197 14.0071 20.8779 13.5398C21.0362 13.0726 21.2595 12.4035 21.3741 12.0531C21.4888 11.7027 21.6921 11.1053 21.8259 10.7257C21.9598 10.346 22.1622 9.74868 22.2757 9.39824C22.3891 9.0478 22.6038 8.40266 22.7527 7.96461C23.0369 7.12843 23.2275 6.55318 23.6858 5.15045C23.8384 4.68319 24.0763 3.99027 24.2147 3.61063C24.3531 3.23098 24.524 2.74121 24.5948 2.52213L24.7236 2.1239H22.1414C19.8125 2.1239 19.5593 2.14142 19.5593 2.3022C19.5593 2.40033 19.4431 2.79452 19.3012 3.17831C19.1592 3.5621 18.9411 4.18673 18.8167 4.56638C18.6923 4.94603 18.4855 5.56726 18.3573 5.94691C18.229 6.32656 18.0221 6.94779 17.8976 7.32744C17.773 7.70709 17.5628 8.32833 17.4304 8.70797C17.298 9.08762 17.0963 9.68496 16.9823 10.0354C16.8681 10.3858 16.6454 11.0549 16.487 11.5221C15.7941 13.5683 15.6846 13.8929 15.4843 14.4956C15.3678 14.846 15.2041 15.3239 15.1207 15.5575L14.9689 15.9823L11.2765 16.0106L7.58422 16.0388V9.08135V2.1239H5.12268H2.66113V18Z" fill="black" stroke="black" stroke-width="1.33333"/>
<path d="M65.9821 2.41594C65.9048 2.57661 65.6746 3.23364 65.4705 3.87611C65.2665 4.51859 65.0057 5.30709 64.8913 5.62833C64.7767 5.94957 64.5815 6.52302 64.4575 6.90266C64.3335 7.28231 64.1235 7.90355 63.991 8.28319C63.8585 8.66284 63.6588 9.26018 63.5473 9.61063C63.2153 10.6543 62.7887 11.9049 62.5331 12.5841C62.4013 12.9345 62.2654 13.3407 62.2313 13.4867C62.1973 13.6328 62.0693 14.0389 61.947 14.3894C61.8246 14.7398 61.5727 15.4805 61.3874 16.0354C61.202 16.5903 60.9335 17.3788 60.7907 17.7876C60.6481 18.1965 60.4808 18.6982 60.4191 18.9027C60.3575 19.1071 60.1441 19.7522 59.9449 20.3363C59.7457 20.9204 59.5348 21.5416 59.4763 21.7168C59.0323 23.0443 58.6155 24.2731 58.3957 24.9027C58.2531 25.3115 58.0861 25.8133 58.0249 26.0177C57.9636 26.2221 57.7899 26.7478 57.639 27.1858C57.4881 27.6239 57.2085 28.4602 57.0175 29.0443C56.4744 30.7062 56.1577 31.6418 55.8853 32.3894C55.747 32.769 55.576 33.2589 55.5052 33.4779L55.3764 33.8761H66.4077H77.4389V31.9115V29.9469H69.6403H61.8416L61.9312 29.5487C61.9803 29.3297 62.1132 28.8876 62.2264 28.5664C62.5878 27.5415 62.9043 26.62 63.1204 25.9646C63.2358 25.6142 63.4436 24.9929 63.582 24.5841C63.7204 24.1752 63.9631 23.4584 64.1213 22.9912C64.2796 22.5239 64.5031 21.8549 64.6182 21.5044C64.7333 21.154 64.8959 20.6761 64.9794 20.4425L65.1312 20.0177L71.285 19.9901L77.4389 19.9625V17.9989V16.0354H71.9836C67.7085 16.0354 66.5281 16.0067 66.5273 15.9027C66.5265 15.7777 66.906 14.6172 67.4562 13.062C67.5906 12.6823 67.8023 12.0611 67.9268 11.6814C68.0514 11.3018 68.2583 10.6805 68.3865 10.3009C68.5148 9.92125 68.7221 9.30001 68.8472 8.92036C69.0594 8.27618 69.5017 6.97933 69.7164 6.37169L69.8102 6.1062L73.6246 6.07806L77.4389 6.04981V4.08691V2.1239H71.7807H66.1224L65.9821 2.41594Z" fill="black" stroke="black" stroke-width="1.33333"/>
</svg>
