<svg width="50" height="55" viewBox="0 0 50 55" fill="none" xmlns="http://www.w3.org/2000/svg">
<path d="M49.32 46.9338L39.583 36.5207C39.1435 36.0507 38.5477 35.7896 37.9227 35.7896H36.3308C39.0263 32.1027 40.628 27.4653 40.628 22.4207C40.628 10.42 31.5355 0.696167 20.314 0.696167C9.09246 0.696167 0 10.42 0 22.4207C0 34.4213 9.09246 44.1451 20.314 44.1451C25.0311 44.1451 29.3674 42.4323 32.8149 39.5496V41.252C32.8149 41.9205 33.0591 42.5576 33.4985 43.0276L43.2356 53.4407C44.1536 54.4225 45.6381 54.4225 46.5464 53.4407L49.3102 50.4849C50.2283 49.5032 50.2283 47.9156 49.32 46.9338ZM20.314 35.7896C13.4092 35.7896 7.81307 29.8153 7.81307 22.4207C7.81307 15.0364 13.3994 9.05174 20.314 9.05174C27.2188 9.05174 32.8149 15.026 32.8149 22.4207C32.8149 29.8049 27.2286 35.7896 20.314 35.7896Z" fill="black"/>
</svg>
