<svg width="45" height="50" viewBox="0 0 45 50" fill="none" xmlns="http://www.w3.org/2000/svg">
<g clip-path="url(#clip0_81_78)">
<path d="M42.2594 29.4257L45.9526 9.11318C46.2192 7.64658 45.3274 6.25 44.1242 6.25H13.4381L12.722 1.87402C12.5436 0.783301 11.7758 0 10.8851 0H2.875C1.83945 0 1 1.04932 1 2.34375V3.90625C1 5.20068 1.83945 6.25 2.875 6.25H8.33461L13.8227 39.7886C12.5098 40.7324 11.625 42.5021 11.625 44.5312C11.625 47.5516 13.5837 50 16 50C18.4163 50 20.375 47.5516 20.375 44.5312C20.375 43.0006 19.8713 41.6177 19.0606 40.625H35.4393C34.6287 41.6177 34.125 43.0006 34.125 44.5312C34.125 47.5516 36.0838 50 38.5 50C40.9162 50 42.875 47.5516 42.875 44.5312C42.875 42.366 41.8681 40.4949 40.4079 39.6089L40.8389 37.2382C41.1055 35.7716 40.2137 34.375 39.0105 34.375H18.0404L17.5291 31.25H40.431C41.3065 31.25 42.0654 30.4928 42.2594 29.4257Z" fill="black"/>
</g>
<defs>
<clipPath id="clip0_81_78">
<rect width="45" height="50" fill="white"/>
</clipPath>
</defs>
</svg>
