<svg width="45" height="50" viewBox="0 0 45 50" fill="none" xmlns="http://www.w3.org/2000/svg">
<g clip-path="url(#clip0_81_67)">
<path d="M31.5 29.6875C28.6172 29.6875 27.231 31.25 22.5 31.25C17.769 31.25 16.3929 29.6875 13.5 29.6875C6.04687 29.6875 0 35.5664 0 42.8125V45.3125C0 47.9004 2.1596 50 4.82143 50H40.1786C42.8404 50 45 47.9004 45 45.3125V42.8125C45 35.5664 38.9531 29.6875 31.5 29.6875ZM40.1786 45.3125H4.82143V42.8125C4.82143 38.1641 8.71875 34.375 13.5 34.375C14.9665 34.375 17.3471 35.9375 22.5 35.9375C27.6931 35.9375 30.0234 34.375 31.5 34.375C36.2812 34.375 40.1786 38.1641 40.1786 42.8125V45.3125ZM22.5 28.125C30.4855 28.125 36.9643 21.8262 36.9643 14.0625C36.9643 6.29883 30.4855 0 22.5 0C14.5145 0 8.03571 6.29883 8.03571 14.0625C8.03571 21.8262 14.5145 28.125 22.5 28.125ZM22.5 4.6875C27.8136 4.6875 32.1429 8.89648 32.1429 14.0625C32.1429 19.2285 27.8136 23.4375 22.5 23.4375C17.1864 23.4375 12.8571 19.2285 12.8571 14.0625C12.8571 8.89648 17.1864 4.6875 22.5 4.6875Z" fill="black"/>
</g>
<defs>
<clipPath id="clip0_81_67">
<rect width="45" height="50" fill="white"/>
</clipPath>
</defs>
</svg>
